# xmcd
#
# Track frame offsets: 
#        150
#        18086
#        34301
#        56873
#        73816
#        87727
#        103417
#        124411
#        142453
#        156645
#        174653
#        192500
#        209617
#        229478
#        246370
#
# Disc length: 3590 seconds
#
# Revision: 0
# Processed by: cddbd v1.5.1PL2 Copyright (c) Steve Scherf et al.
# Submitted via: ExactAudioCopy v0.95a5
#
DISCID=020e040f
DTITLE=The Kentucky Headhunters - Flying Under the Radar
DYEAR=1900
DGENRE=Country
TTITLE0=Louisianna CoCo
TTITLE1=Country Life
TTITLE2=Back to the Sun
TTITLE3=Big Boss Man
TTITLE4=Take These Chains From My Heart
TTITLE5=Go To Heaven
TTITLE6=Too Much To Lose
TTITLE7=Chug A Lug (Dance Mix)
TTITLE8=Midnight Special
TTITLE9=Lonely Nights
TTITLE10=Everyday People
TTITLE11=Love That Woman
TTITLE12=Once In A While
TTITLE13=Ashes of Love
TTITLE14=Rock On
EXTD=
EXTT0=
EXTT1=
EXTT2=
EXTT3=
EXTT4=
EXTT5=
EXTT6=
EXTT7=
EXTT8=
EXTT9=
EXTT10=
EXTT11=
EXTT12=
EXTT13=
EXTT14=
PLAYORDER=
